<svg xmlns="http://www.w3.org/2000/svg" xmlns:xlink="http://www.w3.org/1999/xlink" viewBox="0 0 289.13 112.79"><defs><linearGradient id="a" y1="56.4" x2="289.13" y2="56.4" gradientUnits="userSpaceOnUse"><stop offset="0" stop-color="#f4c198"/><stop offset="0.34" stop-color="#b47f9d"/><stop offset="0.56" stop-color="#70739d"/><stop offset="0.65" stop-color="#6c7aa2"/><stop offset="0.78" stop-color="#638dae"/><stop offset="0.94" stop-color="#53adc3"/><stop offset="1" stop-color="#4bbccd"/></linearGradient></defs><title>logo</title><path d="M95.42,107.54V5a5,5,0,0,1,10,0V107.54a5,5,0,0,1-10,0Zm115.63,2.7q2.07-4.18,4.16-8.37l4.17-8.37q2.07-4.19,4.16-8.36c1.38-2.78,5.69-11.4,7.07-14.18.4-.8.78-1.61,1.16-2.42a5.24,5.24,0,0,0,.6-2.29,4.84,4.84,0,0,0-7.7-3.9A6.35,6.35,0,0,0,223,64.56c-.41.76-.81,1.54-1.19,2.33-1.05,2.16-2.27,4.69-3.38,6.83l-4,8-7.27,14.57c-.59-1.14-1-2-1.43-2.77-2.45-5-7.72-15.79-10.17-20.77-.88-1.77-1.71-3.56-2.58-5.32-.44-.9-.89-1.79-1.37-2.67a7.31,7.31,0,0,0-1.51-2.24,4.89,4.89,0,0,0-2.82-1.14h-.33a4.9,4.9,0,0,0-4.9,4.9,7.44,7.44,0,0,0,1.05,3.35c.57,1.08,1.13,2.15,1.68,3.25,1.22,2.47,5.28,10.78,6.51,13.25L198.62,101l4.59,9.24A4.38,4.38,0,0,0,211.05,110.24Zm31.26-18.32c-1-8.27.37-15,4.1-20.61,4.83-7.26,12.3-10.56,22.18-9.82,9,.68,15.17,5.42,18.46,14.08a35.7,35.7,0,0,1,2.05,9.09l0,.29h0a4.2,4.2,0,0,1-1.91,3.92,4.52,4.52,0,0,1-2.86.88l-3.66,0H270.51c-1.47,0-2.95,0-4.42,0-3.55,0-7.22,0-10.88-.09a2,2,0,0,0-1.55.56c-.21.22-.25.74-.13,1.68a14.29,14.29,0,0,0,.26,1.48A11,11,0,0,0,258,99.72a15.09,15.09,0,0,0,9.39,2.66,13.43,13.43,0,0,0,9.52-4.21,12.81,12.81,0,0,0,.91-1.19,8.06,8.06,0,0,1,1.83-2,5.11,5.11,0,0,1,2.93-.91,4.88,4.88,0,0,1,4.91,4.84,4.72,4.72,0,0,1-.91,2.79,22.77,22.77,0,0,1-3.63,4.46,23.49,23.49,0,0,1-16.39,6.17,28.54,28.54,0,0,1-9.66-1.7A22.62,22.62,0,0,1,242.31,91.92Zm11.21-11.11v.13h24.35a10.66,10.66,0,0,0-3.25-7.19l-.44-.41c-4.39-3.76-12.42-3.81-16.85-.1a10.92,10.92,0,0,0-2.6,3.22,12.43,12.43,0,0,0-1,3.37l-.14.68A1.1,1.1,0,0,0,253.52,80.81ZM74.45,103.54A4.56,4.56,0,1,0,79,108.1,4.57,4.57,0,0,0,74.45,103.54Zm99-16.7A25.83,25.83,0,1,1,147.66,61,25.85,25.85,0,0,1,173.48,86.84Zm-9.93,0a15.89,15.89,0,1,0-15.89,15.89A15.9,15.9,0,0,0,163.55,86.84ZM1,86.78c.06.57.14,1.24.24,2a13.52,13.52,0,0,0,.57,2.62,8.88,8.88,0,0,0,1.38,2.73A5.35,5.35,0,0,0,6,96.06l.29.08c3.62.79,5.6-3.58,6.78-6.19l.15-.34c.81-1.78,1.53-3.61,2.15-5.43q.43-1.28.9-2.58c.43,2.16.86,4.42,1.26,6.75a66.09,66.09,0,0,0,2,8.22,39.52,39.52,0,0,0,3.4,7.81A20.24,20.24,0,0,0,29.06,111a8.88,8.88,0,0,0,5.21,1.83,7.34,7.34,0,0,0,2.18-.33A13.62,13.62,0,0,0,42,109.11a27.37,27.37,0,0,0,3.94-4.86c1.08-1.72,1.9-3.12,2.48-4.3,1.33-2.52,2.52-5,3.54-7.3a70.16,70.16,0,0,0,2.67-7.14c.73-2.37,1.37-4.86,1.88-7.39s1-5.32,1.35-8.32a36.54,36.54,0,0,0,.1-6c-.1-1.64-.25-3.08-.46-4.42-.11-.76-.25-1.5-.4-2.19l0-.21a4.92,4.92,0,0,0-.57-1.68,3.57,3.57,0,0,0-6.61,1.88,4.7,4.7,0,0,0,.08.79s0,.11,0,.16a40.09,40.09,0,0,1,.66,11,54.38,54.38,0,0,1-2.14,11.55l0,.06c-.17.64-.53,1.84-1.08,3.58S46.13,88,45.32,90s-1.77,4.17-2.87,6.32A29.65,29.65,0,0,1,39,101.69a10.94,10.94,0,0,1-3.56,2.93,3.21,3.21,0,0,1-2.79,0,6.59,6.59,0,0,1-2.8-2.52,23.86,23.86,0,0,1-2.5-5.19,51.67,51.67,0,0,1-1.86-6.75c-.52-2.47-1-5-1.54-7.48s-1-4.9-1.51-7.06a31.36,31.36,0,0,0-1.94-6l-.1-.22-.11-.16a3.67,3.67,0,0,0-2.68-1.7l-.18-.41-.23.4-.27,0a3.79,3.79,0,0,0-2.81,1.79l0,.08a25.6,25.6,0,0,0-2.52,5q-1.08,2.92-2.15,5.89C9,81.55,8.5,82.76,8,83.94a27,27,0,0,1-.1-3.12c.09-3.65.2-7.24.32-10.69a51.09,51.09,0,0,0-.05-6.78l0-.39c-.17-2.5-.5-7.15-2.78-8.8a3.49,3.49,0,0,0-3-.47A3,3,0,0,0,1,54.41C-.39,55.7,0,58.15.3,60.11a17.08,17.08,0,0,1,.21,1.77c.14,3.14.25,6.85.1,10.51A108.23,108.23,0,0,0,1,86.78Z" fill="url(#a)"/></svg>