<svg xmlns="http://www.w3.org/2000/svg" viewBox="0 0 52 48.35"><title>heart</title><path d="M51.91,14.42C51.15,6.06,45.24,0,37.84,0a14,14,0,0,0-12,6.91A13.46,13.46,0,0,0,14.16,0C6.76,0,.84,6.06.09,14.42a14.75,14.75,0,0,0,.44,5.47,23.53,23.53,0,0,0,7.2,12L25.84,48.35,44.27,31.91a23.53,23.53,0,0,0,7.2-12A14.75,14.75,0,0,0,51.91,14.42Zm-2.39,5a21.4,21.4,0,0,1-6.59,11L25.85,45.65,9.07,30.42a21.4,21.4,0,0,1-6.59-11,13,13,0,0,1-.42-4.7v-.1C2.72,7.31,7.81,2,14.16,2A11.73,11.73,0,0,1,24.93,9.51l.92,2.19.92-2.19A12.09,12.09,0,0,1,37.84,2c6.35,0,11.43,5.31,12.1,12.73A13,13,0,0,1,49.52,19.43Z"/></svg>