<svg xmlns="http://www.w3.org/2000/svg" viewBox="0 0 58 55"><title>cart</title><path d="M0,32V25a9.39,9.39,0,0,1,9.15-4.51c1.31.09,3.45-.84,3.94-1.9C15.94,12.49,18.4,6.22,21,0h2L15.32,20.19H42.7C40,13.19,37.51,6.6,35,0h2c2.6,6.22,5.06,12.49,7.91,18.59.49,1.06,2.63,2,3.94,1.9A9.39,9.39,0,0,1,58,25v7c-1,3.3-1.73,6.65-2.88,9.88C53.56,46.3,51.72,50.63,50,55H8c-1.4-2.91-3.12-5.71-4.12-8.75C2.33,41.59,1.27,36.76,0,32Zm2.58-.8C4,37.51,5.06,43.57,6.9,49.4,7.4,51,10.22,52.79,12,52.84c11.31.31,22.65.31,34,0,1.8-.05,4.62-1.86,5.12-3.44,1.84-5.82,2.89-11.89,4.32-18.2Zm-.44-2.62h53.8c-.5-6-4.14-6.35-8.47-5.62-.18,1.18-.34,2.27-.3,2-3.15-.85-5.77-2.07-8.44-2.19-6.81-.29-13.65.05-20.47-.16-3-.1-5.19.44-6.36,3.39-.06.15-.58.11-1.12.2V23C6.27,22.34,2.46,22.41,2.14,28.58Z"/><path d="M35,0c2.51,6.6,5,13.19,7.7,20.19H15.32L23,0Z" fill="#fff"/><path d="M21,0c-2.6,6.22-5.06,12.49-7.91,18.59-.49,1.06-2.63,2-3.94,1.9A9.39,9.39,0,0,0,0,25V0Z" fill="#fff"/><path d="M58,25a9.39,9.39,0,0,0-9.15-4.51c-1.31.09-3.45-.84-3.94-1.9C42.06,12.49,39.6,6.22,37,0H58Z" fill="#fff"/><path d="M0,32c1.27,4.76,2.33,9.59,3.88,14.25,1,3,2.72,5.84,4.12,8.75H0Z" fill="#fff"/><path d="M50,55c1.72-4.37,3.56-8.7,5.12-13.12C56.27,38.65,57.05,35.3,58,32V55Z" fill="#fff"/><path d="M2.58,31.2H55.42C54,37.51,52.94,43.58,51.1,49.4,50.6,51,47.78,52.79,46,52.84c-11.31.31-22.65.31-34,0C10.22,52.79,7.4,51,6.9,49.4,5.06,43.57,4,37.51,2.58,31.2Z" fill="#fff"/><path d="M2.14,28.58c.32-6.17,4.13-6.24,8.64-5.62v3.27c.54-.09,1.06-.05,1.12-.2,1.17-3,3.39-3.49,6.36-3.39,6.82.21,13.66-.13,20.47.16,2.67.12,5.29,1.34,8.44,2.19,0,.24.12-.85.3-2,4.33-.73,8-.41,8.47,5.62Z" /></svg>