<svg class="svg-sprites" id="skin-sprite" xmlns="http://www.w3.org/2000/svg" xmlns:xlink="http://www.w3.org/1999/xlink">
    <symbol viewBox="0 0 58 55" id="zot-cart" xmlns="http://www.w3.org/2000/svg"><path d="M0 32v-7a9.39 9.39 0 019.15-4.51c1.31.09 3.45-.84 3.94-1.9C15.94 12.49 18.4 6.22 21 0h2l-7.68 20.19H42.7C40 13.19 37.51 6.6 35 0h2c2.6 6.22 5.06 12.49 7.91 18.59.49 1.06 2.63 2 3.94 1.9A9.39 9.39 0 0158 25v7c-1 3.3-1.73 6.65-2.88 9.88C53.56 46.3 51.72 50.63 50 55H8c-1.4-2.91-3.12-5.71-4.12-8.75C2.33 41.59 1.27 36.76 0 32zm2.58-.8C4 37.51 5.06 43.57 6.9 49.4c.5 1.6 3.32 3.39 5.1 3.44 11.31.31 22.65.31 34 0 1.8-.05 4.62-1.86 5.12-3.44 1.84-5.82 2.89-11.89 4.32-18.2zm-.44-2.62h53.8c-.5-6-4.14-6.35-8.47-5.62-.18 1.18-.34 2.27-.3 2-3.15-.85-5.77-2.07-8.44-2.19-6.81-.29-13.65.05-20.47-.16-3-.1-5.19.44-6.36 3.39-.06.15-.58.11-1.12.2V23c-4.51-.66-8.32-.59-8.64 5.58z"/><path d="M35 0c2.51 6.6 5 13.19 7.7 20.19H15.32L23 0zM21 0c-2.6 6.22-5.06 12.49-7.91 18.59-.49 1.06-2.63 2-3.94 1.9A9.39 9.39 0 000 25V0zM58 25a9.39 9.39 0 00-9.15-4.51c-1.31.09-3.45-.84-3.94-1.9C42.06 12.49 39.6 6.22 37 0h21zM0 32c1.27 4.76 2.33 9.59 3.88 14.25 1 3 2.72 5.84 4.12 8.75H0zM50 55c1.72-4.37 3.56-8.7 5.12-13.12C56.27 38.65 57.05 35.3 58 32v23zM2.58 31.2h52.84C54 37.51 52.94 43.58 51.1 49.4c-.5 1.6-3.32 3.39-5.1 3.44-11.31.31-22.65.31-34 0-1.78-.05-4.6-1.84-5.1-3.44C5.06 43.57 4 37.51 2.58 31.2z" fill="#fff"/><path d="M2.14 28.58c.32-6.17 4.13-6.24 8.64-5.62v3.27c.54-.09 1.06-.05 1.12-.2 1.17-3 3.39-3.49 6.36-3.39 6.82.21 13.66-.13 20.47.16 2.67.12 5.29 1.34 8.44 2.19 0 .24.12-.85.3-2 4.33-.73 8-.41 8.47 5.62z"/></symbol>
    <symbol viewBox="0 0 52 48.35" id="zot-heart" xmlns="http://www.w3.org/2000/svg"><path d="M51.91 14.42C51.15 6.06 45.24 0 37.84 0a14 14 0 00-12 6.91A13.46 13.46 0 0014.16 0C6.76 0 .84 6.06.09 14.42a14.75 14.75 0 00.44 5.47 23.53 23.53 0 007.2 12l18.11 16.46 18.43-16.44a23.53 23.53 0 007.2-12 14.75 14.75 0 00.44-5.49zm-2.39 5a21.4 21.4 0 01-6.59 11L25.85 45.65 9.07 30.42a21.4 21.4 0 01-6.59-11 13 13 0 01-.42-4.7v-.1C2.72 7.31 7.81 2 14.16 2a11.73 11.73 0 0110.77 7.51l.92 2.19.92-2.19A12.09 12.09 0 0137.84 2c6.35 0 11.43 5.31 12.1 12.73a13 13 0 01-.42 4.7z"/></symbol>
    <symbol viewBox="0 0 289.13 112.79" id="zot-logo" xmlns="http://www.w3.org/2000/svg"><defs><linearGradient id="ca" y1="56.4" x2="289.13" y2="56.4" gradientUnits="userSpaceOnUse"><stop offset="0" stop-color="#f4c198"/><stop offset=".34" stop-color="#b47f9d"/><stop offset=".56" stop-color="#70739d"/><stop offset=".65" stop-color="#6c7aa2"/><stop offset=".78" stop-color="#638dae"/><stop offset=".94" stop-color="#53adc3"/><stop offset="1" stop-color="#4bbccd"/></linearGradient></defs><path d="M95.42 107.54V5a5 5 0 0110 0v102.54a5 5 0 01-10 0zm115.63 2.7q2.07-4.18 4.16-8.37l4.17-8.37q2.07-4.19 4.16-8.36c1.38-2.78 5.69-11.4 7.07-14.18.4-.8.78-1.61 1.16-2.42a5.24 5.24 0 00.6-2.29 4.84 4.84 0 00-7.7-3.9 6.35 6.35 0 00-1.67 2.21c-.41.76-.81 1.54-1.19 2.33-1.05 2.16-2.27 4.69-3.38 6.83l-4 8-7.27 14.57c-.59-1.14-1-2-1.43-2.77-2.45-5-7.72-15.79-10.17-20.77-.88-1.77-1.71-3.56-2.58-5.32-.44-.9-.89-1.79-1.37-2.67a7.31 7.31 0 00-1.51-2.24 4.89 4.89 0 00-2.82-1.14h-.33a4.9 4.9 0 00-4.9 4.9 7.44 7.44 0 001.05 3.35c.57 1.08 1.13 2.15 1.68 3.25 1.22 2.47 5.28 10.78 6.51 13.25l7.33 14.87 4.59 9.24a4.38 4.38 0 007.84 0zm31.26-18.32c-1-8.27.37-15 4.1-20.61 4.83-7.26 12.3-10.56 22.18-9.82 9 .68 15.17 5.42 18.46 14.08a35.7 35.7 0 012.05 9.09v.29a4.2 4.2 0 01-1.91 3.92 4.52 4.52 0 01-2.86.88H266.09c-3.55 0-7.22 0-10.88-.09a2 2 0 00-1.55.56c-.21.22-.25.74-.13 1.68a14.29 14.29 0 00.26 1.48 11 11 0 004.21 6.34 15.09 15.09 0 009.39 2.66 13.43 13.43 0 009.52-4.21 12.81 12.81 0 00.91-1.19 8.06 8.06 0 011.83-2 5.11 5.11 0 012.93-.91 4.88 4.88 0 014.91 4.84 4.72 4.72 0 01-.91 2.79 22.77 22.77 0 01-3.63 4.46 23.49 23.49 0 01-16.39 6.17 28.54 28.54 0 01-9.66-1.7 22.62 22.62 0 01-14.59-18.71zm11.21-11.11v.13h24.35a10.66 10.66 0 00-3.25-7.19l-.44-.41c-4.39-3.76-12.42-3.81-16.85-.1a10.92 10.92 0 00-2.6 3.22 12.43 12.43 0 00-1 3.37l-.14.68a1.1 1.1 0 00-.07.3zM74.45 103.54A4.56 4.56 0 1079 108.1a4.57 4.57 0 00-4.55-4.56zm99-16.7A25.83 25.83 0 11147.66 61a25.85 25.85 0 0125.82 25.84zm-9.93 0a15.89 15.89 0 10-15.89 15.89 15.9 15.9 0 0015.92-15.89zM1 86.78c.06.57.14 1.24.24 2a13.52 13.52 0 00.57 2.62 8.88 8.88 0 001.38 2.73A5.35 5.35 0 006 96.06l.29.08c3.62.79 5.6-3.58 6.78-6.19l.15-.34a59.44 59.44 0 002.15-5.43q.43-1.28.9-2.58c.43 2.16.86 4.42 1.26 6.75a66.09 66.09 0 002 8.22 39.52 39.52 0 003.4 7.81 20.24 20.24 0 006.13 6.62 8.88 8.88 0 005.21 1.83 7.34 7.34 0 002.18-.33 13.62 13.62 0 005.55-3.39 27.37 27.37 0 003.94-4.86c1.08-1.72 1.9-3.12 2.48-4.3 1.33-2.52 2.52-5 3.54-7.3a70.16 70.16 0 002.67-7.14c.73-2.37 1.37-4.86 1.88-7.39s1-5.32 1.35-8.32a36.54 36.54 0 00.1-6c-.1-1.64-.25-3.08-.46-4.42-.11-.76-.25-1.5-.4-2.19v-.21a4.92 4.92 0 00-.57-1.68 3.57 3.57 0 00-6.61 1.88 4.7 4.7 0 00.08.79v.16a40.09 40.09 0 01.66 11 54.38 54.38 0 01-2.14 11.55v.06c-.17.64-.53 1.84-1.08 3.58S46.13 88 45.32 90s-1.77 4.17-2.87 6.32a29.65 29.65 0 01-3.45 5.37 10.94 10.94 0 01-3.56 2.93 3.21 3.21 0 01-2.79 0 6.59 6.59 0 01-2.8-2.52 23.86 23.86 0 01-2.5-5.19 51.67 51.67 0 01-1.86-6.75c-.52-2.47-1-5-1.54-7.48s-1-4.9-1.51-7.06a31.36 31.36 0 00-1.94-6l-.1-.22-.11-.16a3.67 3.67 0 00-2.68-1.7l-.18-.41-.23.4h-.27a3.79 3.79 0 00-2.81 1.79v.08a25.6 25.6 0 00-2.52 5q-1.08 2.92-2.15 5.89C9 81.55 8.5 82.76 8 83.94a27 27 0 01-.1-3.12c.09-3.65.2-7.24.32-10.69a51.09 51.09 0 00-.05-6.78v-.39c-.17-2.5-.5-7.15-2.78-8.8a3.49 3.49 0 00-3-.47 3 3 0 00-1.39.72c-1.39 1.29-1 3.74-.7 5.7a17.08 17.08 0 01.21 1.77c.14 3.14.25 6.85.1 10.51A108.23 108.23 0 001 86.78z" fill="url(#ca)"/></symbol>
</svg>